<?xml version="1.0" standalone="no"?>
<!DOCTYPE svg PUBLIC "-//W3C//DTD SVG 20010904//EN"
 "http://www.w3.org/TR/2001/REC-SVG-20010904/DTD/svg10.dtd">
<svg version="1.0" xmlns="http://www.w3.org/2000/svg"
 width="900.000000pt" height="903.000000pt" viewBox="0 0 900.000000 903.000000"
 preserveAspectRatio="xMidYMid meet">
<metadata>
Created by potrace 1.10, written by Peter Selinger 2001-2011
</metadata>
<g transform="translate(0.000000,903.000000) scale(0.100000,-0.100000)"
fill="#000000" stroke="none">
<path d="M4980 6938 c-65 -37 -90 -60 -124 -115 -23 -37 -31 -61 -53 -151 -7
-29 23 -136 53 -187 12 -22 190 -206 395 -410 851 -847 1329 -1328 1329 -1336
0 -4 -8 -13 -19 -18 -12 -7 -849 -10 -2433 -11 -2056 0 -2421 -2 -2454 -14
-129 -47 -184 -109 -220 -248 -16 -63 -16 -69 1 -120 38 -116 88 -182 173
-226 l43 -22 2442 0 c1350 0 2448 -4 2456 -9 7 -5 11 -17 7 -28 -3 -10 -389
-401 -857 -869 -468 -467 -857 -862 -866 -878 -22 -41 -52 -137 -53 -164 0
-29 26 -116 48 -161 9 -18 42 -57 74 -86 54 -48 64 -53 134 -65 95 -16 177 -3
241 38 24 16 564 548 1201 1183 1069 1067 1160 1160 1191 1223 31 61 33 73 29
134 -4 46 -15 87 -36 132 -28 61 -109 144 -1194 1223 -891 887 -1176 1165
-1217 1187 -49 27 -63 30 -145 30 -83 -1 -96 -4 -146 -32z"/>
</g>
</svg>
