<svg width="1" height="1" viewBox="0 0 1 1" fill="none" xmlns="http://www.w3.org/2000/svg">
<g clip-path="url(#clip0_4661_1029)">
<rect width="1" height="1" fill="white"/>
<mask id="mask0_4661_1029" style="mask-type:alpha" maskUnits="userSpaceOnUse" x="0" y="0" width="1" height="1">
<path d="M0.041417 1C0.053094 1 0.0636337 0.989695 0.0711641 0.973145C0.0768223 0.989429 0.0859059 1 0.0961544 1C0.10711 1 0.116735 0.987909 0.122268 0.969661C0.125908 0.98751 0.134257 1 0.143985 1C0.152958 1 0.160766 0.98937 0.164781 0.973691C0.17229 0.989931 0.182733 1 0.194278 1C0.205823 1 0.216495 0.989695 0.224025 0.973145C0.229683 0.989429 0.238767 1 0.249015 1C0.259971 1 0.269596 0.987909 0.275129 0.969661C0.278769 0.98751 0.287118 1 0.296846 1C0.305819 1 0.313627 0.98937 0.317642 0.973691C0.325151 0.989931 0.335594 1 0.347139 1C0.358684 1 0.369356 0.989695 0.376886 0.973145C0.382544 0.989429 0.391628 1 0.401876 1C0.412832 1 0.422457 0.987909 0.42799 0.969661C0.43163 0.98751 0.439979 1 0.449707 1C0.45868 1 0.466488 0.98937 0.470503 0.973691C0.478012 0.989931 0.488455 1 0.5 1C0.511545 1 0.522217 0.989695 0.529747 0.973145C0.535405 0.989429 0.544489 1 0.554737 1C0.565693 1 0.575318 0.987909 0.580851 0.969661C0.584491 0.98751 0.59284 1 0.602568 1C0.611541 1 0.619349 0.98937 0.623364 0.973691C0.630873 0.989931 0.641316 1 0.652861 1C0.664406 1 0.675078 0.989695 0.682608 0.973145C0.688266 0.989429 0.69735 1 0.707598 1C0.718554 1 0.728179 0.987909 0.733712 0.969661C0.737352 0.98751 0.745701 1 0.755429 1C0.764402 1 0.77221 0.98937 0.776224 0.973691C0.783734 0.989931 0.794177 1 0.805722 1C0.817267 1 0.827939 0.989695 0.835469 0.973145C0.841127 0.989429 0.850211 1 0.860459 1C0.871415 1 0.881039 0.987909 0.886573 0.969661C0.890213 0.98751 0.898562 1 0.90829 1C0.917263 1 0.925071 0.98937 0.929085 0.973691C0.936595 0.989931 0.947038 1 0.958583 1C0.981458 1 1 0.960522 1 0.911818V0H0V0.911818C0 0.960522 0.0185416 1 0.041417 1Z" fill="#D9D9D9"/>
</mask>
<g mask="url(#mask0_4661_1029)">
<path d="M0.041417 1C0.053094 1 0.0636337 0.989695 0.0711641 0.973145C0.0768223 0.989429 0.0859059 1 0.0961544 1C0.10711 1 0.116735 0.987909 0.122268 0.969661C0.125908 0.98751 0.134257 1 0.143985 1C0.152958 1 0.160766 0.98937 0.164781 0.973691C0.17229 0.989931 0.182733 1 0.194278 1C0.205823 1 0.216495 0.989695 0.224025 0.973145C0.229683 0.989429 0.238767 1 0.249015 1C0.259971 1 0.269596 0.987909 0.275129 0.969661C0.278769 0.98751 0.287118 1 0.296846 1C0.305819 1 0.313627 0.98937 0.317642 0.973691C0.325151 0.989931 0.335594 1 0.347139 1C0.358684 1 0.369356 0.989695 0.376886 0.973145C0.382544 0.989429 0.391628 1 0.401876 1C0.412832 1 0.422457 0.987909 0.42799 0.969661C0.43163 0.98751 0.439979 1 0.449707 1C0.45868 1 0.466488 0.98937 0.470503 0.973691C0.478012 0.989931 0.488455 1 0.5 1C0.511545 1 0.522217 0.989695 0.529747 0.973145C0.535405 0.989429 0.544489 1 0.554737 1C0.565693 1 0.575318 0.987909 0.580851 0.969661C0.584491 0.98751 0.59284 1 0.602568 1C0.611541 1 0.619349 0.98937 0.623364 0.973691C0.630873 0.989931 0.641316 1 0.652861 1C0.664406 1 0.675078 0.989695 0.682608 0.973145C0.688266 0.989429 0.69735 1 0.707598 1C0.718554 1 0.728179 0.987909 0.733712 0.969661C0.737352 0.98751 0.745701 1 0.755429 1C0.764402 1 0.77221 0.98937 0.776224 0.973691C0.783734 0.989931 0.794177 1 0.805722 1C0.817267 1 0.827939 0.989695 0.835469 0.973145C0.841127 0.989429 0.850211 1 0.860459 1C0.871415 1 0.881039 0.987909 0.886573 0.969661C0.890213 0.98751 0.898562 1 0.90829 1C0.917263 1 0.925071 0.98937 0.929085 0.973691C0.936595 0.989931 0.947038 1 0.958583 1C0.981458 1 1 0.960522 1 0.911818V0H0V0.911818C0 0.960522 0.0185416 1 0.041417 1Z" fill="#D9D9D9"/>
</g>
</g>
<defs>
<clipPath id="clip0_4661_1029">
<rect width="1" height="1" fill="white"/>
</clipPath>
</defs>
</svg>
