<svg width="1" height="1" viewBox="0 0 1 1" fill="none" xmlns="http://www.w3.org/2000/svg">
<g clip-path="url(#clip0_4658_1015)">
<rect width="1" height="1" fill="white"/>
<mask id="mask0_4658_1015" style="mask-type:alpha" maskUnits="userSpaceOnUse" x="0" y="0" width="1" height="1">
<path d="M0.295031 0C0.374661 0 0.446923 0.032147 0.5 0.0843985C0.553077 0.032147 0.625339 0 0.704969 0C0.86791 0 1 0.134598 1 0.300633C1 0.377122 0.971967 0.44694 0.925798 0.5C0.971967 0.55306 1 0.622878 1 0.699367C1 0.865402 0.86791 1 0.704969 1C0.625339 1 0.553077 0.967853 0.5 0.915602C0.446923 0.967853 0.374661 1 0.295031 1C0.13209 1 0 0.865402 0 0.699367C0 0.622878 0.0280333 0.55306 0.0742019 0.5C0.0280333 0.44694 0 0.377122 0 0.300633C0 0.134598 0.13209 0 0.295031 0Z" fill="#D9D9D9"/>
</mask>
<g mask="url(#mask0_4658_1015)">
</g>
</g>
<defs>
<clipPath id="clip0_4658_1015">
<rect width="1" height="1" fill="white"/>
</clipPath>
</defs>
</svg>
